<svg id="svg" version="1.1" xmlns="http://www.w3.org/2000/svg" xmlns:xlink="http://www.w3.org/1999/xlink" width="400" height="105.30583045188983" viewBox="0, 0, 400,105.30583045188983"><g id="svgg"><path id="path0" d="M297.615 0.107 C 297.582 0.140,297.089 0.205,296.518 0.252 C 295.947 0.298,295.166 0.405,294.782 0.490 C 294.398 0.575,293.763 0.690,293.372 0.747 C 292.980 0.804,292.349 0.960,291.968 1.094 C 291.588 1.229,291.074 1.374,290.827 1.418 C 290.580 1.461,290.161 1.610,289.897 1.747 C 289.633 1.885,289.321 1.998,289.205 1.999 C 288.619 2.002,284.856 4.034,282.917 5.394 C 281.822 6.161,279.181 8.724,278.399 9.777 C 277.509 10.976,276.353 12.840,275.936 13.750 C 275.683 14.300,275.366 14.954,275.231 15.204 C 275.096 15.454,274.989 15.698,274.993 15.746 C 274.997 15.794,274.991 15.871,274.979 15.917 C 274.968 15.963,274.940 16.075,274.917 16.167 C 274.894 16.258,274.856 16.371,274.833 16.417 C 274.810 16.462,274.777 16.556,274.760 16.625 C 274.743 16.694,274.634 17.087,274.518 17.500 C 273.511 21.084,273.519 20.854,273.579 43.333 C 273.609 54.563,273.676 64.012,273.729 64.333 C 273.781 64.654,273.854 65.104,273.891 65.333 C 274.823 71.184,278.079 76.847,282.325 80.000 C 282.634 80.229,282.968 80.495,283.068 80.591 C 283.337 80.848,286.889 82.922,286.994 82.883 C 287.043 82.865,287.248 82.957,287.449 83.089 C 287.752 83.288,289.832 84.080,290.417 84.220 C 290.508 84.241,290.677 84.318,290.792 84.390 C 290.906 84.461,291.000 84.480,291.000 84.431 C 291.000 84.382,291.206 84.421,291.458 84.519 C 291.964 84.714,292.294 84.794,293.167 84.931 C 293.487 84.981,294.012 85.085,294.333 85.163 C 294.654 85.241,295.442 85.359,296.083 85.426 C 296.725 85.492,297.475 85.571,297.750 85.600 C 299.428 85.778,305.248 85.642,306.394 85.398 C 306.590 85.356,307.012 85.285,307.333 85.240 C 307.654 85.195,308.067 85.123,308.250 85.081 C 308.433 85.039,308.883 84.935,309.250 84.852 C 312.263 84.166,315.368 82.957,316.647 81.972 C 316.866 81.804,317.118 81.667,317.207 81.667 C 317.296 81.667,317.653 81.442,318.000 81.167 C 318.347 80.892,318.714 80.667,318.816 80.667 C 318.917 80.667,319.000 80.594,319.000 80.504 C 319.000 80.415,319.212 80.232,319.470 80.099 C 320.193 79.725,323.235 76.549,324.035 75.333 C 324.427 74.737,324.800 74.211,324.864 74.163 C 325.777 73.480,327.653 67.941,328.278 64.083 C 328.338 63.717,328.408 54.379,328.434 43.333 L 328.482 23.250 328.084 20.833 C 327.590 17.828,327.450 17.192,327.168 16.667 C 327.044 16.438,326.962 16.250,326.984 16.250 C 327.005 16.250,326.943 16.039,326.845 15.781 C 326.747 15.523,326.667 15.274,326.667 15.228 C 326.667 15.182,326.327 14.468,325.912 13.640 C 325.223 12.265,324.887 11.729,323.326 9.519 C 322.364 8.156,320.483 6.398,318.222 4.750 C 317.198 4.003,312.670 1.807,311.676 1.574 C 311.533 1.541,311.004 1.393,310.500 1.245 C 309.261 0.882,308.543 0.711,307.750 0.591 C 307.383 0.535,306.858 0.448,306.583 0.398 C 306.308 0.348,305.783 0.268,305.417 0.222 C 304.634 0.122,297.702 0.020,297.615 0.107 M0.000 42.917 L 0.000 84.667 8.583 84.667 L 17.167 84.667 17.167 72.333 L 17.167 60.000 21.392 60.000 L 25.617 60.000 26.331 61.375 C 26.724 62.131,27.174 62.938,27.331 63.167 C 27.488 63.396,27.869 64.108,28.178 64.750 C 28.487 65.392,28.779 65.954,28.828 66.000 C 28.923 66.089,29.119 66.449,30.285 68.667 C 30.694 69.446,31.087 70.158,31.157 70.250 C 31.228 70.342,31.758 71.317,32.335 72.417 C 32.912 73.517,33.704 75.017,34.095 75.750 C 34.487 76.483,35.084 77.646,35.424 78.333 C 35.763 79.021,36.088 79.621,36.145 79.667 C 36.266 79.763,36.609 80.387,37.886 82.833 L 38.799 84.583 48.501 84.626 C 57.703 84.667,58.197 84.654,58.083 84.376 C 58.016 84.215,57.924 83.952,57.878 83.792 C 57.832 83.631,57.733 83.500,57.658 83.500 C 57.584 83.500,57.473 83.345,57.413 83.156 C 57.353 82.966,56.853 82.010,56.302 81.031 C 54.924 78.582,54.690 78.157,53.670 76.250 C 53.180 75.333,52.650 74.396,52.491 74.166 C 52.332 73.937,51.865 73.112,51.452 72.333 C 51.039 71.554,50.431 70.471,50.100 69.926 C 49.770 69.382,49.500 68.844,49.500 68.732 C 49.500 68.620,49.444 68.503,49.375 68.472 C 49.249 68.416,48.834 67.702,48.134 66.333 C 47.923 65.921,47.712 65.546,47.667 65.500 C 47.561 65.395,47.254 64.853,46.580 63.583 C 46.288 63.033,45.857 62.246,45.621 61.833 C 45.386 61.421,45.011 60.746,44.787 60.333 C 44.564 59.921,44.223 59.321,44.031 59.000 C 43.838 58.679,43.379 57.838,43.012 57.131 C 42.190 55.550,41.943 55.107,41.824 55.000 C 40.682 53.978,40.446 52.090,41.306 50.865 C 41.480 50.619,41.884 49.929,42.205 49.333 C 42.525 48.737,42.959 47.950,43.169 47.583 C 43.378 47.217,43.774 46.504,44.048 46.000 C 44.322 45.496,44.649 44.965,44.773 44.820 C 44.898 44.675,45.000 44.475,45.000 44.374 C 45.000 44.273,45.094 44.091,45.208 43.970 C 45.323 43.849,45.572 43.450,45.763 43.083 C 46.237 42.168,46.566 41.599,46.676 41.500 C 46.727 41.454,46.868 41.173,46.988 40.875 C 47.109 40.577,47.266 40.333,47.337 40.333 C 47.409 40.333,47.553 40.127,47.657 39.875 C 47.761 39.623,48.029 39.117,48.252 38.750 C 48.474 38.383,48.832 37.746,49.047 37.333 C 49.524 36.415,49.889 35.778,50.000 35.667 C 50.046 35.621,50.252 35.246,50.457 34.833 C 50.924 33.898,51.202 33.452,51.417 33.294 C 51.528 33.213,51.528 33.170,51.417 33.167 C 51.306 33.163,51.306 33.121,51.417 33.039 C 51.508 32.972,51.808 32.486,52.083 31.959 C 52.358 31.432,52.640 31.001,52.708 31.001 C 52.777 31.000,52.817 30.944,52.796 30.875 C 52.776 30.806,52.982 30.375,53.254 29.917 C 53.853 28.907,54.240 28.221,54.524 27.667 C 54.642 27.438,55.022 26.792,55.369 26.232 C 55.716 25.672,56.000 25.159,56.000 25.091 C 56.000 25.023,56.138 24.769,56.308 24.526 C 56.660 24.019,57.833 21.889,57.833 21.755 C 57.833 21.707,53.574 21.667,48.369 21.667 L 38.904 21.667 38.250 22.792 C 37.890 23.410,37.402 24.292,37.166 24.750 C 36.685 25.687,36.291 26.376,36.167 26.500 C 36.121 26.546,35.918 26.921,35.715 27.333 C 35.277 28.225,33.895 30.751,32.160 33.833 C 31.772 34.521,31.340 35.308,31.199 35.583 C 31.058 35.858,30.894 36.121,30.835 36.167 C 30.776 36.212,30.559 36.587,30.354 37.000 C 30.149 37.412,29.763 38.125,29.498 38.583 C 29.232 39.042,28.715 39.989,28.349 40.689 C 27.983 41.390,27.455 42.323,27.175 42.764 C 26.895 43.205,26.667 43.657,26.667 43.769 C 26.667 43.881,26.610 43.997,26.542 44.028 C 26.473 44.058,26.267 44.383,26.083 44.750 L 25.750 45.417 21.458 45.461 L 17.167 45.506 17.167 23.336 L 17.167 1.167 8.583 1.167 L 0.000 1.167 0.000 42.917 M342.667 42.912 L 342.667 84.667 351.250 84.667 L 359.833 84.667 359.833 68.833 L 359.833 53.000 363.801 53.000 L 367.769 53.000 368.060 53.708 C 368.219 54.098,368.457 54.642,368.587 54.917 C 368.994 55.773,369.550 57.075,369.590 57.264 C 369.612 57.363,369.835 57.888,370.087 58.430 C 370.339 58.973,370.639 59.642,370.754 59.917 C 370.869 60.192,371.094 60.717,371.254 61.083 C 371.413 61.450,371.765 62.275,372.036 62.917 C 372.306 63.558,372.609 64.271,372.708 64.500 C 372.808 64.729,372.902 64.954,372.918 65.000 C 373.047 65.370,373.558 66.503,373.765 66.875 C 373.904 67.127,373.984 67.333,373.940 67.333 C 373.897 67.333,374.089 67.802,374.368 68.375 C 374.646 68.948,374.889 69.492,374.909 69.583 C 374.953 69.787,375.261 70.525,375.676 71.417 C 376.222 72.593,377.167 74.789,377.167 74.884 C 377.167 74.935,377.397 75.474,377.678 76.082 C 377.960 76.690,378.217 77.314,378.250 77.469 C 378.283 77.623,378.805 78.837,379.409 80.167 C 380.014 81.496,380.513 82.621,380.519 82.667 C 380.525 82.712,380.643 83.012,380.780 83.333 C 380.917 83.654,381.096 84.085,381.177 84.292 L 381.325 84.667 390.652 84.667 L 399.979 84.667 399.484 83.542 C 399.212 82.923,398.768 81.967,398.498 81.417 C 398.228 80.867,397.737 79.817,397.406 79.083 C 396.738 77.600,396.533 77.154,395.412 74.750 C 394.984 73.833,394.482 72.746,394.296 72.333 C 393.754 71.129,392.428 68.254,391.376 66.000 C 390.617 64.374,389.979 62.991,389.414 61.750 C 389.164 61.200,388.750 60.300,388.493 59.750 C 388.237 59.200,387.830 58.300,387.588 57.750 C 387.346 57.200,386.934 56.300,386.672 55.750 C 386.410 55.200,385.738 53.788,385.179 52.613 C 384.056 50.253,384.058 50.304,385.049 49.866 C 385.434 49.695,386.264 49.243,386.892 48.861 C 387.520 48.479,388.101 48.167,388.184 48.167 C 388.266 48.167,388.333 48.092,388.333 48.000 C 388.333 47.908,388.427 47.832,388.542 47.829 C 388.731 47.826,389.146 47.491,390.583 46.178 C 391.552 45.293,393.136 43.500,393.607 42.755 C 393.869 42.340,394.140 42.000,394.208 42.000 C 394.277 42.000,394.333 41.913,394.333 41.807 C 394.333 41.701,394.521 41.369,394.750 41.069 C 394.979 40.768,395.167 40.448,395.167 40.358 C 395.167 40.268,395.225 40.169,395.297 40.139 C 395.651 39.988,398.034 34.333,397.744 34.333 C 397.706 34.333,397.754 34.127,397.851 33.875 C 398.653 31.788,399.028 25.499,398.530 22.500 C 398.416 21.813,398.299 21.100,398.270 20.917 C 398.101 19.829,397.134 16.899,396.493 15.534 C 396.222 14.957,396.000 14.450,396.000 14.408 C 396.000 14.365,395.775 14.020,395.500 13.640 C 395.225 13.261,395.000 12.849,395.000 12.725 C 395.000 12.601,394.939 12.500,394.864 12.500 C 394.789 12.500,394.559 12.200,394.353 11.833 C 394.147 11.467,393.925 11.167,393.859 11.167 C 393.793 11.167,393.615 10.960,393.465 10.708 C 392.989 9.913,390.686 7.729,389.333 6.792 C 388.921 6.506,388.546 6.230,388.500 6.178 C 388.454 6.126,388.154 5.939,387.833 5.763 C 387.512 5.586,387.212 5.386,387.166 5.319 C 387.120 5.251,386.407 4.886,385.583 4.507 C 384.758 4.128,383.896 3.719,383.667 3.596 C 383.438 3.474,382.688 3.207,382.000 3.003 C 381.313 2.799,380.637 2.590,380.500 2.540 C 380.164 2.418,380.016 2.382,379.333 2.256 C 378.825 2.162,378.247 2.036,376.917 1.729 C 376.563 1.647,376.010 1.574,374.000 1.346 C 373.313 1.268,365.981 1.193,357.708 1.180 L 342.667 1.157 342.667 42.912 M304.500 15.150 C 305.351 15.374,305.532 15.446,306.906 16.107 C 308.984 17.108,310.668 19.632,311.116 22.417 C 311.442 24.447,311.272 62.663,310.931 64.000 C 310.060 67.408,307.847 69.665,304.548 70.509 C 303.300 70.828,298.965 70.898,297.833 70.617 C 296.788 70.358,295.545 69.903,295.141 69.631 C 294.898 69.467,294.623 69.333,294.531 69.333 C 294.288 69.333,292.333 67.322,292.333 67.072 C 292.333 66.956,292.277 66.836,292.208 66.806 C 291.856 66.649,291.044 64.400,290.864 63.083 C 290.555 60.825,290.740 22.449,291.064 21.417 C 292.324 17.410,294.300 15.745,298.667 15.010 C 299.756 14.826,303.624 14.919,304.500 15.150 M372.417 16.193 C 372.875 16.287,373.363 16.368,373.500 16.372 C 373.637 16.376,373.844 16.453,373.958 16.543 C 374.073 16.634,374.167 16.659,374.167 16.599 C 374.167 16.540,374.392 16.608,374.667 16.750 C 374.942 16.892,375.167 16.965,375.167 16.912 C 375.167 16.507,377.975 18.439,379.037 19.575 C 379.773 20.361,379.976 20.699,380.827 22.542 C 381.730 24.499,381.897 28.570,381.172 30.950 C 380.709 32.470,379.124 35.011,378.455 35.307 C 378.385 35.338,378.233 35.457,378.118 35.572 C 377.879 35.812,376.675 36.597,375.870 37.039 C 375.397 37.299,374.554 37.552,372.833 37.954 C 372.604 38.007,369.585 38.082,366.125 38.119 L 359.833 38.188 359.833 27.090 L 359.833 15.992 365.708 16.007 C 369.018 16.015,371.947 16.096,372.417 16.193 M93.813 20.570 C 93.778 20.601,92.852 20.679,91.755 20.743 C 90.658 20.806,89.721 20.883,89.672 20.913 C 89.623 20.943,89.303 21.011,88.961 21.065 C 88.378 21.158,87.061 21.442,86.500 21.597 C 86.362 21.634,85.725 21.808,85.083 21.981 C 84.442 22.155,83.617 22.423,83.250 22.577 C 82.883 22.731,82.364 22.946,82.096 23.054 C 81.328 23.362,78.853 24.648,78.667 24.834 C 78.621 24.880,78.378 25.023,78.128 25.152 C 77.877 25.281,77.524 25.525,77.343 25.693 C 77.162 25.862,76.942 26.000,76.854 26.000 C 76.766 26.000,76.669 26.056,76.639 26.125 C 76.608 26.194,76.133 26.622,75.583 27.078 C 74.459 28.009,74.197 28.271,73.250 29.418 C 72.883 29.862,72.490 30.320,72.375 30.434 C 72.260 30.549,72.167 30.723,72.167 30.821 C 72.167 30.920,72.109 31.000,72.039 31.000 C 71.792 31.000,70.034 34.148,69.479 35.583 C 69.302 36.042,69.087 36.567,69.001 36.750 C 68.726 37.334,68.000 40.639,67.873 41.883 C 67.582 44.730,67.754 65.466,68.072 65.982 C 68.116 66.053,68.196 66.357,68.248 66.658 C 68.599 68.647,70.085 72.666,70.870 73.750 C 73.290 77.088,74.125 78.063,75.619 79.291 C 76.188 79.759,76.751 80.226,76.869 80.328 C 76.987 80.431,77.470 80.759,77.943 81.057 C 78.416 81.356,78.930 81.706,79.085 81.835 C 79.240 81.963,79.469 82.084,79.594 82.102 C 79.719 82.120,80.030 82.280,80.286 82.457 C 80.541 82.633,81.087 82.909,81.500 83.069 C 81.912 83.230,82.475 83.461,82.750 83.584 C 84.118 84.197,87.987 85.161,90.167 85.432 C 92.847 85.766,99.631 85.746,100.189 85.403 C 100.247 85.367,100.772 85.265,101.356 85.177 C 102.879 84.947,105.174 84.373,106.083 83.993 C 106.267 83.917,106.604 83.803,106.833 83.741 C 109.263 83.079,113.762 80.108,116.458 77.384 C 117.398 76.435,118.167 75.591,118.167 75.509 C 118.167 75.426,118.345 75.147,118.563 74.888 C 119.389 73.905,120.672 71.418,121.298 69.583 C 121.579 68.758,121.860 67.952,121.922 67.792 C 122.029 67.516,121.567 67.500,113.631 67.500 L 105.226 67.500 104.867 68.208 C 104.489 68.954,102.974 70.667,102.693 70.667 C 102.602 70.667,102.503 70.723,102.472 70.792 C 102.296 71.192,100.094 72.021,98.431 72.314 C 95.725 72.791,93.622 72.698,90.793 71.979 C 88.490 71.394,85.435 68.638,85.088 66.833 C 85.079 66.787,84.985 66.595,84.880 66.406 C 84.406 65.556,84.026 62.750,84.007 59.958 L 83.988 57.167 103.244 57.167 L 122.500 57.167 122.526 50.875 C 122.541 47.415,122.546 44.471,122.537 44.333 C 122.466 43.182,122.307 41.592,122.254 41.507 C 122.219 41.449,122.153 41.106,122.108 40.743 C 121.911 39.150,121.408 37.398,120.580 35.417 C 120.465 35.142,120.322 34.755,120.262 34.557 C 120.203 34.359,120.044 34.106,119.910 33.995 C 119.776 33.883,119.667 33.666,119.667 33.511 C 119.667 33.356,119.535 33.082,119.375 32.901 C 119.215 32.721,118.940 32.313,118.764 31.995 C 118.588 31.677,118.269 31.205,118.055 30.946 C 117.842 30.686,117.667 30.407,117.667 30.324 C 117.667 30.100,114.082 26.500,113.859 26.500 C 113.753 26.500,113.667 26.423,113.667 26.328 C 113.667 26.234,113.535 26.106,113.375 26.045 C 113.215 25.984,112.936 25.796,112.755 25.629 C 111.977 24.906,108.021 22.898,106.233 22.318 C 105.601 22.113,104.971 21.909,104.833 21.864 C 104.385 21.719,104.257 21.686,103.750 21.586 C 103.475 21.531,103.125 21.449,102.972 21.403 C 102.182 21.165,101.544 21.060,100.000 20.913 C 99.404 20.856,98.792 20.775,98.641 20.732 C 98.305 20.637,93.902 20.489,93.813 20.570 M161.917 20.610 C 160.584 20.705,157.899 21.022,157.167 21.170 C 156.754 21.254,156.129 21.363,155.778 21.413 C 155.427 21.462,155.007 21.574,154.843 21.661 C 154.680 21.749,154.300 21.864,154.000 21.917 C 153.700 21.970,153.296 22.098,153.102 22.201 C 152.908 22.305,152.750 22.372,152.750 22.351 C 152.750 22.162,149.149 23.745,147.740 24.553 C 146.874 25.050,145.020 26.375,144.416 26.928 C 144.050 27.264,143.636 27.624,143.497 27.728 C 143.004 28.097,140.751 30.702,140.793 30.854 C 140.817 30.940,140.723 31.053,140.585 31.106 C 140.447 31.159,140.333 31.267,140.333 31.346 C 140.333 31.425,139.958 32.064,139.500 32.766 C 139.042 33.468,138.667 34.112,138.667 34.197 C 138.667 34.282,138.503 34.704,138.302 35.134 C 138.102 35.565,137.914 36.052,137.885 36.217 C 137.856 36.383,137.718 36.739,137.579 37.009 C 137.439 37.279,137.367 37.500,137.418 37.500 C 137.470 37.500,137.442 37.631,137.356 37.792 C 137.270 37.952,137.149 38.346,137.087 38.667 C 137.026 38.987,136.905 39.587,136.820 40.000 C 136.734 40.412,136.629 41.050,136.585 41.417 C 136.542 41.783,136.432 42.683,136.340 43.417 C 136.116 45.216,136.128 61.169,136.355 63.083 C 136.574 64.930,137.159 68.105,137.383 68.667 C 137.438 68.804,137.596 69.315,137.736 69.803 C 138.396 72.115,140.643 75.803,142.518 77.654 C 144.043 79.158,145.211 80.167,146.083 80.732 C 146.633 81.089,147.383 81.576,147.750 81.815 C 149.480 82.945,152.839 84.244,155.583 84.843 C 156.871 85.124,157.036 85.154,158.296 85.329 C 161.586 85.787,166.898 85.825,168.850 85.404 C 169.070 85.357,169.587 85.281,170.000 85.235 C 170.412 85.189,170.862 85.111,171.000 85.060 C 171.347 84.933,172.890 84.527,173.361 84.439 C 174.142 84.292,176.028 83.552,177.583 82.783 C 178.471 82.344,181.228 80.785,181.333 80.662 C 181.379 80.609,181.979 80.121,182.667 79.579 C 184.107 78.442,185.270 77.306,186.333 76.000 C 186.743 75.496,187.126 75.046,187.183 75.000 C 187.240 74.954,187.412 74.692,187.564 74.417 C 187.717 74.142,188.030 73.617,188.260 73.250 C 189.153 71.825,190.764 67.820,190.536 67.591 C 190.285 67.341,173.667 67.500,173.667 67.754 C 173.667 69.050,170.588 71.543,168.250 72.141 C 166.588 72.566,163.766 72.739,162.167 72.513 C 160.232 72.241,159.790 72.160,159.602 72.042 C 159.500 71.978,159.268 71.903,159.087 71.875 C 158.906 71.847,158.684 71.751,158.595 71.662 C 158.506 71.573,158.331 71.500,158.205 71.500 C 157.817 71.500,156.026 70.198,155.171 69.295 C 154.621 68.713,153.582 66.759,153.420 66.000 C 153.351 65.679,153.234 65.341,153.160 65.248 C 152.928 64.958,152.815 63.699,152.721 60.375 L 152.631 57.167 171.911 57.167 L 191.190 57.167 191.123 49.458 C 191.056 41.761,191.055 41.747,190.602 39.833 C 190.353 38.779,190.107 37.710,190.055 37.458 C 190.004 37.206,189.905 37.000,189.835 37.000 C 189.765 37.000,189.663 36.773,189.608 36.497 C 189.428 35.597,187.532 31.917,187.100 31.628 C 186.992 31.556,186.985 31.502,187.083 31.497 C 187.175 31.493,187.131 31.398,186.986 31.286 C 186.840 31.175,186.510 30.746,186.251 30.333 C 185.576 29.257,181.809 25.667,181.355 25.667 C 181.251 25.667,181.167 25.604,181.167 25.527 C 181.167 25.450,180.998 25.301,180.792 25.196 C 180.585 25.091,179.892 24.709,179.250 24.348 C 178.608 23.987,177.746 23.530,177.333 23.334 C 176.921 23.137,176.443 22.900,176.272 22.808 C 175.224 22.241,170.707 21.084,168.917 20.924 C 168.275 20.866,167.574 20.782,167.359 20.736 C 166.891 20.636,162.863 20.543,161.917 20.610 M236.538 20.686 C 234.790 20.900,234.300 20.997,233.170 21.351 C 232.572 21.539,231.965 21.717,231.821 21.748 C 231.436 21.829,228.990 23.153,228.713 23.430 C 228.583 23.560,228.405 23.667,228.318 23.667 C 227.186 23.667,223.357 29.347,222.915 31.681 C 222.852 32.017,222.739 32.518,222.572 33.208 C 222.555 33.277,222.532 33.408,222.521 33.500 C 222.509 33.592,222.425 33.667,222.333 33.667 C 222.225 33.667,222.167 31.556,222.167 27.667 L 222.167 21.667 213.833 21.667 L 205.500 21.667 205.500 63.417 L 205.500 105.167 214.083 105.167 L 222.667 105.167 222.686 96.542 C 222.697 91.798,222.705 87.879,222.704 87.833 C 222.691 87.200,222.470 80.936,222.410 79.500 C 222.126 72.606,222.191 71.055,222.666 73.458 C 223.041 75.361,224.332 78.525,225.109 79.449 C 225.278 79.650,225.604 80.058,225.833 80.355 C 226.190 80.816,226.540 81.166,227.732 82.252 C 230.755 85.007,239.082 86.640,243.417 85.329 C 243.692 85.246,244.171 85.135,244.481 85.082 C 244.792 85.030,245.167 84.922,245.315 84.843 C 245.462 84.764,245.640 84.692,245.708 84.683 C 245.777 84.674,245.852 84.661,245.875 84.654 C 245.898 84.647,246.029 84.615,246.167 84.582 C 246.817 84.429,249.044 83.328,250.167 82.605 C 251.523 81.731,251.602 81.665,253.083 80.146 C 255.233 77.942,255.579 77.438,257.176 74.180 C 257.554 73.407,257.889 72.644,257.920 72.482 C 257.951 72.320,258.070 72.015,258.183 71.802 C 258.297 71.590,258.369 71.417,258.345 71.417 C 258.320 71.417,258.424 70.989,258.576 70.466 C 258.728 69.942,258.889 69.305,258.933 69.049 C 258.977 68.793,259.051 68.458,259.097 68.305 C 259.251 67.795,259.348 67.258,259.441 66.417 C 259.491 65.958,259.598 65.283,259.678 64.917 C 259.835 64.199,259.779 41.743,259.619 40.924 C 259.565 40.652,259.473 40.052,259.414 39.590 C 259.355 39.128,259.241 38.487,259.161 38.167 C 259.081 37.846,258.977 37.362,258.929 37.091 C 258.849 36.630,258.410 35.057,258.207 34.500 C 258.157 34.362,258.097 34.175,258.073 34.083 C 258.050 33.992,257.897 33.617,257.734 33.250 C 257.570 32.883,257.430 32.546,257.421 32.500 C 257.412 32.454,257.297 32.229,257.166 32.000 C 257.034 31.771,256.695 31.149,256.413 30.618 C 254.942 27.856,251.810 24.633,249.250 23.249 C 248.608 22.902,248.008 22.564,247.917 22.498 C 247.700 22.342,245.564 21.498,245.104 21.387 C 242.082 20.655,238.911 20.396,236.538 20.686 M99.549 34.075 C 101.225 34.639,102.267 35.290,103.273 36.399 C 104.080 37.287,104.767 38.394,105.303 39.667 C 105.570 40.298,105.656 40.635,106.005 42.398 C 106.312 43.947,106.215 47.115,105.858 47.209 C 105.688 47.253,102.032 47.302,97.733 47.318 C 93.434 47.333,88.580 47.381,86.945 47.424 L 83.974 47.503 84.022 45.460 C 84.173 38.992,86.604 35.205,91.417 33.938 C 93.641 33.352,97.603 33.419,99.549 34.075 M167.230 33.848 C 172.131 34.890,174.718 38.803,174.822 45.331 L 174.851 47.122 173.884 47.220 C 173.352 47.274,169.579 47.327,165.500 47.339 C 161.421 47.350,156.857 47.386,155.358 47.419 L 152.634 47.478 152.687 45.198 C 152.742 42.847,153.110 40.642,153.590 39.796 C 153.731 39.546,153.836 39.321,153.823 39.296 C 153.676 39.018,155.082 36.871,155.833 36.226 C 156.063 36.029,156.438 35.702,156.667 35.500 C 157.476 34.785,159.483 33.993,161.417 33.625 C 162.454 33.427,165.868 33.558,167.230 33.848 M234.854 35.579 C 235.901 35.693,237.916 36.372,238.336 36.752 C 238.486 36.889,238.691 37.000,238.791 37.000 C 239.468 37.000,242.000 40.418,242.000 41.332 C 242.000 41.486,242.052 41.663,242.116 41.727 C 242.180 41.791,242.247 41.935,242.265 42.046 C 242.283 42.158,242.362 42.587,242.441 43.000 C 242.616 43.921,242.632 62.277,242.459 63.368 C 242.321 64.234,241.876 65.450,241.362 66.365 C 240.888 67.209,239.824 68.667,239.682 68.667 C 239.617 68.667,239.417 68.798,239.240 68.958 C 237.605 70.434,232.473 71.342,229.851 70.620 C 228.896 70.357,228.234 70.110,228.016 69.937 C 227.887 69.834,227.775 69.774,227.766 69.802 C 227.690 70.051,226.259 69.109,225.495 68.308 C 223.898 66.634,223.132 64.950,222.854 62.500 C 222.708 61.212,222.724 44.781,222.872 43.667 C 223.260 40.757,225.022 37.806,226.875 36.961 C 227.127 36.846,227.333 36.705,227.333 36.648 C 227.333 36.391,229.559 35.717,230.917 35.563 C 231.375 35.511,231.777 35.442,231.810 35.411 C 231.880 35.343,233.515 35.434,234.854 35.579 " stroke="none" fill="#e4ac04" fill-rule="evenodd"></path><path id="path1" d="M122.575 51.250 C 122.575 54.550,122.597 55.924,122.625 54.302 C 122.652 52.681,122.652 49.981,122.625 48.302 C 122.598 46.624,122.575 47.950,122.575 51.250 M87.042 47.448 C 87.202 47.490,87.465 47.490,87.625 47.448 C 87.785 47.406,87.654 47.372,87.333 47.372 C 87.013 47.372,86.881 47.406,87.042 47.448 M155.627 47.451 C 155.834 47.491,156.134 47.490,156.294 47.448 C 156.453 47.406,156.283 47.374,155.917 47.375 C 155.550 47.377,155.420 47.411,155.627 47.451 " stroke="none" fill="#e4b404" fill-rule="evenodd"></path><path id="path2" d="M278.333 9.708 C 278.087 10.044,278.047 10.160,278.227 10.014 C 278.501 9.792,278.914 9.167,278.787 9.167 C 278.755 9.167,278.551 9.410,278.333 9.708 M308.936 17.750 C 309.729 18.797,309.921 19.006,309.702 18.583 C 309.607 18.400,309.254 17.950,308.917 17.583 L 308.306 16.917 308.936 17.750 M391.740 45.042 L 391.250 45.583 391.792 45.094 C 392.297 44.638,392.410 44.500,392.281 44.500 C 392.252 44.500,392.009 44.744,391.740 45.042 M67.577 53.083 C 67.577 57.483,67.599 59.259,67.625 57.030 C 67.651 54.801,67.651 51.201,67.625 49.030 C 67.599 46.859,67.577 48.683,67.577 53.083 M222.744 53.083 C 222.744 57.392,222.765 59.178,222.791 57.053 C 222.818 54.928,222.818 51.403,222.792 49.220 C 222.765 47.036,222.744 48.775,222.744 53.083 M103.628 47.287 C 103.928 47.325,104.378 47.324,104.628 47.286 C 104.878 47.248,104.633 47.217,104.083 47.218 C 103.533 47.219,103.328 47.250,103.628 47.287 M172.794 47.285 C 173.001 47.324,173.301 47.323,173.460 47.281 C 173.620 47.239,173.450 47.207,173.083 47.209 C 172.717 47.211,172.586 47.245,172.794 47.285 M85.794 47.451 C 86.001 47.491,86.301 47.490,86.460 47.448 C 86.620 47.406,86.450 47.374,86.083 47.375 C 85.717 47.377,85.586 47.411,85.794 47.451 M154.460 47.451 C 154.668 47.491,154.968 47.490,155.127 47.448 C 155.286 47.406,155.117 47.374,154.750 47.375 C 154.383 47.377,154.253 47.411,154.460 47.451 M67.705 63.667 C 67.705 63.987,67.740 64.119,67.782 63.958 C 67.823 63.798,67.823 63.535,67.782 63.375 C 67.740 63.215,67.705 63.346,67.705 63.667 M31.250 70.667 C 31.392 70.942,31.546 71.167,31.592 71.167 C 31.638 71.167,31.559 70.942,31.417 70.667 C 31.274 70.392,31.121 70.167,31.075 70.167 C 31.029 70.167,31.108 70.392,31.250 70.667 M94.795 72.621 C 95.094 72.658,95.544 72.657,95.795 72.619 C 96.045 72.581,95.800 72.551,95.250 72.552 C 94.700 72.553,94.495 72.584,94.795 72.621 M164.127 72.618 C 164.334 72.658,164.634 72.656,164.794 72.615 C 164.953 72.573,164.783 72.540,164.417 72.542 C 164.050 72.544,163.920 72.578,164.127 72.618 M143.333 78.583 C 143.644 78.904,143.936 79.167,143.982 79.167 C 144.028 79.167,143.811 78.904,143.500 78.583 C 143.189 78.262,142.897 78.000,142.851 78.000 C 142.805 78.000,143.022 78.262,143.333 78.583 M228.333 82.841 C 228.911 83.234,229.241 83.348,228.833 83.015 C 228.604 82.827,228.342 82.674,228.250 82.673 C 228.158 82.672,228.196 82.748,228.333 82.841 M94.875 85.782 C 95.035 85.823,95.298 85.823,95.458 85.782 C 95.619 85.740,95.487 85.705,95.167 85.705 C 94.846 85.705,94.715 85.740,94.875 85.782 M163.542 85.782 C 163.702 85.823,163.965 85.823,164.125 85.782 C 164.285 85.740,164.154 85.705,163.833 85.705 C 163.512 85.705,163.381 85.740,163.542 85.782 M300.708 85.782 C 300.869 85.823,301.131 85.823,301.292 85.782 C 301.452 85.740,301.321 85.705,301.000 85.705 C 300.679 85.705,300.548 85.740,300.708 85.782 M222.744 96.583 C 222.744 101.350,222.766 103.276,222.792 100.863 C 222.818 98.451,222.818 94.551,222.792 92.197 C 222.765 89.843,222.744 91.817,222.744 96.583 " stroke="none" fill="#dcac04" fill-rule="evenodd"></path><path id="path3" d="M361.792 53.125 C 362.915 53.153,364.752 53.153,365.875 53.125 C 366.998 53.096,366.079 53.072,363.833 53.072 C 361.587 53.072,360.669 53.096,361.792 53.125 " stroke="none" fill="#e8ac04" fill-rule="evenodd"></path><path id="path4" d="M361.792 53.125 C 362.915 53.153,364.752 53.153,365.875 53.125 C 366.998 53.096,366.079 53.072,363.833 53.072 C 361.587 53.072,360.669 53.096,361.792 53.125 " stroke="none" fill="#e8ac04" fill-rule="evenodd"></path></g></svg>